<svg id="Layer_1" data-name="Layer 1" xmlns="http://www.w3.org/2000/svg" xmlns:xlink="http://www.w3.org/1999/xlink" viewBox="0 0 500 500"><defs><style>.cls-1{fill:url(#linear-gradient);}.cls-2,.cls-3{fill:#fff;}.cls-2{stroke:#808285;stroke-miterlimit:10;}.cls-3{font-size:30px;font-family:LeckerliOne-Regular, Leckerli One;}</style><linearGradient id="linear-gradient" x1="100.97" y1="89.77" x2="398.74" y2="409.77" gradientUnits="userSpaceOnUse"><stop offset="0.21" stop-color="#3f70b7"/><stop offset="0.81" stop-color="#1c9eb9"/></linearGradient></defs><rect class="cls-1" x="1" y="1" width="500" height="500" rx="103"/><path class="cls-2" d="M208.34,322.52c-10.91,2.31-20.91-.69-31.47-3.16a43,43,0,0,1-5.85-2.77c-7.37-4.24-12.82-10.7-13.64-19.33-.87-2.56-1.63-4-2.26-4.34q-1.59-.71-26.7-.7-4.23,0-7.48.06c-3.51,1.55-7.51-.45-9.51,1.55-6,5-4,16-11,19-17,7-43,19-59,5,23-10,30-35,39.87-56.46l2.56-7,2.73-7.4q4.57-12.39,8.37-22.68c.85-2.3,1.67-4.51,2.46-6.66,7-18.83,11-39.83,25-52.83a38.75,38.75,0,0,1,4.72-3.62,54.45,54.45,0,0,1,5.73-3.27c13.55-5.11,41.55-17.11,45.55,2.89,2,12-11,20-12.18,32.39-.29,2.19-.48,4.35-.56,6.51-.21,6.46.62,12.83,4,18.72q1.19,3,2.44,6.27,3.76,9.69,8.19,21.18,1.49,3.85,2.87,7.48l2.69,7c2.55,3.44,3.55,6.44,3.55,9.44,5,16,4,35,15.76,47.87A46.16,46.16,0,0,1,208.34,322.52ZM133.69,218.91c-2.26,6.92-6.26,12.92-7.36,19.62-.89,2.59-1.68,4.91-2.35,7q-3,9.24-3,11.26c0,1.2,2,1.86,6,2,2.06.14,5.44.2,10.16.2,4.38,0,6.81-.53,7.27-1.59a4,4,0,0,0,.2-1.4,31.21,31.21,0,0,0-1.14-6.17q-1.15-4.53-3.44-12c-1.49-4.78-2.78-8.71-3.82-11.89S134.32,220.39,133.69,218.91Z"/><path class="cls-2" d="M317,200.16c-19.54-2.33-38.54.67-58.45,4.49q-3.69,1.71-3.69,9.58,0,9.47,4.78,10.75a26.67,26.67,0,0,0,6.08.5c2.29,0,5.15-.06,8.58-.22,11.16-.43,23.16-4.43,32.16-1.43,5,2,3,12,3.68,17.69q0,3.81-.07,6.82c0,2-.11,3.76-.2,5.23-6.41,13.26-29.41,2.26-42.06,5.78q-7,0-7.87.1-5.09.8-5.08,4.28c5.6,26.1,1.6,58.1-32.4,57.1-14-1-20-15-18-27,2-13,14-23,11.88-36.77,0-2.78.09-5.32.12-7.62s0-4.38,0-6.23q0-13.14-1.2-33.07-1.78-30.78-1.89-33.07l-.1-1.19c-.07-1.66.93-2.49,3-2.49q7.36,0,22.26.3l7,.13c14.91,3,24.91-10,36.91-17,8-4,23-7,26,3,3,12,5,23,7.9,35A51.07,51.07,0,0,1,317,200.16Z"/><path class="cls-2" d="M458.46,299.11c-2,22.72-32,17.72-45,11.72-12-5-20-20-27.43-31.58a42.51,42.51,0,0,0-3.57-4.86,42.72,42.72,0,0,0-4.63,5.88q-1.8,2.52-4.23,6.07c-7.14,9.49-11.14,22.49-21.14,26.49-17,6-43,4-47-18-2-13,14-11,22-15,7-4,12-10,16.44-16.89,1.11-1.46,2.15-2.85,3.11-4.15q10.15-13.7,10.15-15.88,0-1.86-7.45-12-2.49-3.39-5.8-7.7c-16.45-16.36-21.45-37.36-19.45-59.36,10,4,19,11,29.91,9.16q.8,0,4.42,4.84t10.07,14.53q12.9,19.38,13.5,19.38,2-1.2,14.64-20.32l2.85-4.32q1.35-2,2.54-3.75c9.07-17.52,36.07-17.52,47.07-10.52,17,13-19,32-26.81,48.67q-2.56,3.33-4.7,6.15-10.69,14.07-10.69,15.07,0,.84,3.39,5.75c9.81,19.36,30.81,26.36,46,40.47A17.32,17.32,0,0,1,458.46,299.11Z"/><text class="cls-3" transform="translate(245.63 364.76)">By Arulselvam</text></svg>